<svg width="88" height="88" viewBox="0 0 88 88" xmlns="http://www.w3.org/2000/svg"><title>Group 66</title><g fill="none" fill-rule="evenodd"><circle fill="#0D897F" cx="44" cy="44" r="44"/><g fill="#FFF" fill-rule="nonzero"><path d="M60 48.57v11.15c0 2.364-1.932 4.28-4.32 4.28l-15.63-.002h-.059c-.113 0-.226-.057-.341-.17l-7.103-7.036c-1.705-1.69-2.047-3.999-.795-5.237 1.25-1.239 3.297-1.184 4.547.057l1.137 1.126-.002-14.417c0-1.858 1.42-3.321 3.184-3.321 1.762 0 3.183 1.52 3.183 3.321v6.195a3.371 3.371 0 0 1 2.216-.845c1.308 0 2.445.732 2.9 1.746.568-.563 1.478-.956 2.5-.956 1.307 0 2.444.62 2.9 1.52.568-.506 1.478-.788 2.5-.788C58.578 45.191 60 46.711 60 48.57zM40.5 30c-.312 0-.5-.23-.5-.463v-6.074c0-.289.249-.463.5-.463.312 0 .5.23.5.463v6.074c-.002.233-.251.463-.5.463zM44.457 32c-.11 0-.22-.056-.332-.11a.505.505 0 0 1 0-.665l4.088-4.1a.502.502 0 0 1 .662 0 .505.505 0 0 1 0 .665l-4.088 4.1c-.054.056-.22.11-.33.11zM52.528 35h-6.065c-.29 0-.463-.249-.463-.5 0-.312.23-.5.463-.5h6.065c.29 0 .463.249.463.5.059.249-.174.5-.463.5zM36.545 32c-.11 0-.22-.056-.332-.11l-4.088-4.1a.505.505 0 0 1 0-.665.502.502 0 0 1 .662 0l4.088 4.1a.505.505 0 0 1 0 .665c-.11.056-.22.11-.33.11zM34.537 35h-6.074c-.289 0-.463-.249-.463-.5 0-.312.23-.5.463-.5h6.074c.289 0 .463.249.463.5 0 .249-.23.5-.463.5z"/></g></g></svg>