<svg width="88" height="88" viewBox="0 0 88 88" xmlns="http://www.w3.org/2000/svg"><title>Group 67</title><g fill="none" fill-rule="evenodd"><circle fill="#0D897F" cx="44" cy="44" r="44"/><g fill="#FFF" fill-rule="nonzero"><path d="M44.747 26H31.253C28.894 26 27 27.917 27 30.304v27.392C27 60.083 28.894 62 31.253 62h13.494C47.106 62 49 60.083 49 57.696V30.304C49 27.917 47.106 26 44.747 26zm-13.494 2.348h13.494c1.083 0 1.933.86 1.933 1.956v.665H29.32v-.665c0-1.096.85-1.956 1.933-1.956zm13.494 31.304H31.253c-1.083 0-1.933-.86-1.933-1.956v-3.522h17.36v3.522a1.95 1.95 0 0 1-1.933 1.956z"/><path d="M41.82 56h-6.64c-.669 0-1.18.434-1.18 1 0 .566.511 1 1.18 1h6.64c.669 0 1.18-.434 1.18-1 0-.566-.55-1-1.18-1zM53.165 37.346c-.509-.461-1.317-.461-1.783 0-.51.461-.51 1.193 0 1.615 2.76 2.5 2.76 6.578 0 9.078-.51.462-.51 1.193 0 1.615.255.232.594.346.893.346.296 0 .637-.116.892-.346 3.778-3.385 3.778-8.923-.002-12.308z"/><path d="M56.943 34.355c-.457-.473-1.182-.473-1.6 0-.457.473-.457 1.224 0 1.658 4.533 4.697 4.533 12.316 0 16.975-.457.473-.457 1.224 0 1.657.229.238.532.355.8.355.267 0 .572-.119.801-.355 5.408-5.525 5.408-14.685-.001-20.29z"/></g></g></svg>