<svg width="88" height="88" viewBox="0 0 88 88" xmlns="http://www.w3.org/2000/svg"><title>Group 68</title><g fill="none" fill-rule="evenodd"><circle fill="#0D897F" cx="44" cy="44" r="44"/><path d="M63.024 38.731c0-1.18-.967-2.146-2.146-2.146H58.31l-1.862-4.838c-.462-1.201-1.853-2.476-3.093-2.83.002 0-3.21-.917-9.844-.917-6.634 0-9.846.918-9.846.918-1.238.353-2.63 1.626-3.091 2.829l-1.862 4.838h-2.567c-1.18 0-2.146.967-2.146 2.146 0 1.18.966 2.147 2.146 2.147h.916l-.66 1.716c-.463 1.203-.841 3.24-.841 4.528v10.146A2.739 2.739 0 0 0 28.293 60a2.739 2.739 0 0 0 2.731-2.732v-1.561H56v1.56A2.739 2.739 0 0 0 58.73 60a2.739 2.739 0 0 0 2.732-2.732V47.122c0-1.288-.378-3.325-.84-4.528l-.661-1.716h.916c1.18 0 2.146-.967 2.146-2.147zm-32.12.635l2.192-5.95c.148-.404.62-.733 1.05-.733h18.731c.43 0 .903.329 1.05.731l2.193 5.95c.148.404-.081.733-.51.733H31.413c-.43 0-.658-.329-.51-.731zm-.075 9.707a2.147 2.147 0 1 1 0-4.293 2.147 2.147 0 0 1 0 4.293zm25.366 0a2.146 2.146 0 1 1 0-4.293 2.146 2.146 0 1 1 0 4.293z" fill="#FFF" fill-rule="nonzero"/></g></svg>