<svg width="88" height="88" viewBox="0 0 88 88" xmlns="http://www.w3.org/2000/svg"><title>Group 69</title><g fill="none" fill-rule="evenodd"><circle fill="#0D897F" cx="44" cy="44" r="44"/><g fill="#FFF" fill-rule="nonzero"><path d="M66.958 47.075c-.307-1.218-4.755-1.005-6.187-.794l-16.666 2.435c-1.432.211-3.221-.423-4.653-.794-1.432-.37-3.579-.688-3.579-.688 1.432-1.164 2.504-2.012 3.068-2.593l2.658-3.76c.563-.793.665-1.269.203-1.852l-.41-.53c-.458-.582-1.225-.634-1.84-.264L35.616 41.2c-.613.37-5.266 1.164-7.311 1.642a14.795 14.795 0 0 0-4.55 1.958C22.076 45.857 21 47.288 21 50.145c0 2.382 1.687 4.446 3.375 4.975 5.675 1.853 14.622 2.753 14.622 2.753 2.146.264 3.476.105 5.266-.37L62 50.94c4.396-1.853 5.212-2.752 4.957-3.865z"/><path d="M59 38c0 4.433-3.567 8-8 8s-8-3.567-8-8 3.567-8 8-8 8 3.567 8 8z"/></g></g></svg>