<svg width="88" height="88" viewBox="0 0 88 88" xmlns="http://www.w3.org/2000/svg"><title>Group 59</title><g fill="none" fill-rule="evenodd"><circle fill="#0D897F" cx="44" cy="44" r="44"/><g fill="#FFF" fill-rule="nonzero"><path d="M52.22 21.19a51.043 51.043 0 0 0-8.82 0c-5.047.51-8.36 1.935-10.043 4.379-1.53 2.238-1.275 4.887-.713 6.718 0 .051.052.051.102.101h.101a21.077 21.077 0 0 1 8.055-3.106s.052 0 .052.052v.052l-7.087 5.75c-1.53 1.373-2.804 3.053-3.67 4.936a1.976 1.976 0 0 0 .153 1.984 2.17 2.17 0 0 0 1.376.917c.918.153 1.836-.356 2.243-1.171a10.48 10.48 0 0 1 2.65-3.511c1.072.763 3.212 2.036 5.556 2.29.408.052.866.052 1.274 0 5.2-.509 8.412-6.668 9.533-18.27.104-.611-.253-1.07-.763-1.12zM43.718 57.424c-1.46.1-2.921-.051-4.331-.504.151-1.31.2-3.776-.807-5.89a7.886 7.886 0 0 0-.655-1.107c-2.97-4.18-9.87-3.877-20.394.906a.921.921 0 0 0-.452 1.208 48.24 48.24 0 0 0 4.331 7.5c2.718 3.777 5.439 5.942 8.108 6.394.2.051.403.051.555.051 2.67.201 4.784-1.359 6.094-2.668 0-.051.051-.051 0-.1 0-.052-.051-.052-.051-.101-2.469-1.41-4.735-3.223-6.548-5.438v-.051h.05l8.461 3.172c1.963.655 4.028.907 6.094.655.704-.051 1.31-.503 1.611-1.107.303-.655.303-1.41-.1-2.014-.404-.655-1.159-1.009-1.965-.907h-.001zM66.292 48.057c-1.152-2.466-3.554-3.544-5.354-4.007h-.1c-.05 0-.05.052-.05.102a21.446 21.446 0 0 1-1.303 8.53v.051h-.05s-.051 0-.051-.052l-1.502-9.093a15.041 15.041 0 0 0-2.45-5.753 2.18 2.18 0 0 0-.6-.566c-.95-.566-2.153-.205-2.702.77l-.1.155c-.35.668-.301 1.489.15 2.157.85 1.232 1.45 2.621 1.701 4.11-1.2.566-3.352 1.746-4.654 3.699-.25.36-.45.718-.651 1.13-2.102 4.778 1.552 10.687 10.91 17.57.4.257.95.154 1.25-.257 1.652-2.414 3.054-4.983 4.305-7.654 2.101-4.52 2.502-8.168 1.251-10.891z"/></g></g></svg>