<svg width="88" height="88" viewBox="0 0 88 88" xmlns="http://www.w3.org/2000/svg"><title>Group 60</title><g fill="none" fill-rule="evenodd"><circle fill="#0D897F" cx="44" cy="44" r="44"/><g fill="#FFF" fill-rule="nonzero"><path d="M50.684 29.67c-.736.787-1.842.985-3.684.787.921-1.184 1.474-2.959 1.657-4.143C49.21 22.961 49.947 20 54 20c4.052 0 4.605 2.959 5.158 6.314.368 1.184.921 2.959 1.842 4.143-2.027.198-2.948 0-3.684-.788-2.027 1.775-4.79 1.775-6.632 0zM38 25.501a5.5 5.5 0 1 1-11-.002 5.5 5.5 0 0 1 11 .002M44 37.066c10.508-9.108 23.88-1.672 21.78 10.038-.955 4.647-3.439 8.55-7.07 11.896 1.72-2.23 3.058-4.646 3.44-7.434 1.91-9.851-9.362-16.172-18.15-8.55-8.788-7.621-20.06-1.3-18.341 8.55.573 2.788 1.91 5.205 3.63 7.434-3.63-3.346-6.114-7.25-7.069-11.896C20.118 35.394 33.492 27.958 44 37.066z"/><path d="M44.001 45.163c7.527-7.056 17.503-1.334 15.809 7.627C58.493 60.228 51.718 64.804 44 69c-7.716-4.195-14.49-8.772-15.808-16.21-1.693-8.963 8.092-14.683 15.808-7.627z"/></g></g></svg>