<svg width="88" height="88" viewBox="0 0 88 88" xmlns="http://www.w3.org/2000/svg"><title>Group 61</title><g fill="none" fill-rule="evenodd"><circle fill="#0D897F" cx="44" cy="44" r="44"/><path d="M53.278 52.384c2.748-.116 5.393-.281 7.914-.488a53.94 53.94 0 0 0 .501-6.834c-2.619.02-5.384.033-8.253.044-.005 2.48-.061 4.913-.162 7.277zm-.62-24.742c.24 2.444.427 5.01.559 7.671 2.7.127 5.303.314 7.785.546a46.154 46.154 0 0 0-1.598-6.65 48.05 48.05 0 0 0-6.747-1.567zm-.577 17.47c-2.455.009-4.982.009-7.567.011 0 2.544-.006 5.035-.011 7.454 2.538-.006 5.023-.058 7.438-.144.084-2.375.134-4.824.14-7.321zm-.143-8.539a224.081 224.081 0 0 0-7.439-.143c.006 2.416.012 4.91.012 7.453 2.585 0 5.112.006 7.566.011-.003-2.499-.053-4.946-.14-7.321zm-8.616-11.152c.014-1.893.03-3.706.05-5.42-2.18.041-4.293.364-6.302.923a148.066 148.066 0 0 0-.56 5.015 51.433 51.433 0 0 1 6.812-.518zM36.51 63.065a146.5 146.5 0 0 0 .56 5.015c2.01.556 4.122.879 6.302.92-.017-1.717-.036-3.527-.05-5.42a51.435 51.435 0 0 1-6.812-.515zm6.756-26.636c-2.539.009-5.02.055-7.436.144a213.884 213.884 0 0 0-.143 7.318c2.455-.005 4.982-.01 7.567-.01.003-2.544.003-5.035.011-7.451zM35.88 21.285a25.062 25.062 0 0 0-5.292 2.493 36.228 36.228 0 0 0-1.707 3.916 45.336 45.336 0 0 1 6.38-1.56c.183-1.68.39-3.295.62-4.85zm16.008 46.433a25.399 25.399 0 0 0 5.292-2.494 36.228 36.228 0 0 0 1.707-3.915 45.776 45.776 0 0 1-6.378 1.56c-.185 1.68-.392 3.295-.621 4.85zm-.63-41.78a154.952 154.952 0 0 0-.557-5.015A25.393 25.393 0 0 0 44.4 20c.017 1.717.034 3.527.048 5.42 2.339.025 4.62.201 6.811.518zM62.536 36.01c1.71.179 3.352.38 4.925.606a24.456 24.456 0 0 0-2.535-5.216 36.676 36.676 0 0 0-3.977-1.679 43.873 43.873 0 0 1 1.587 6.289zm.722 7.938c1.925.014 3.764.028 5.507.047a24.319 24.319 0 0 0-.937-6.208 162.99 162.99 0 0 0-5.094-.548c.322 2.16.501 4.406.524 6.71zm-4.374-16.255a35.695 35.695 0 0 0-1.707-3.915 25.135 25.135 0 0 0-5.292-2.494c.23 1.554.436 3.172.618 4.85 2.239.383 4.374.906 6.38 1.56zm2.308 9.413a195.27 195.27 0 0 0-7.914-.487c.101 2.367.157 4.797.165 7.28 2.869.008 5.634.022 8.253.041a53.895 53.895 0 0 0-.503-6.834zM43.313 62.042a3207.9 3207.9 0 0 1-.042-8.129 188.92 188.92 0 0 1-7.388-.16c.115 2.703.28 5.313.493 7.796 2.228.297 4.55.468 6.937.493zm19.945-16.988a49.552 49.552 0 0 1-.524 6.707c1.772-.16 3.47-.345 5.094-.549.57-1.978.895-4.059.937-6.205-1.743.02-3.582.03-5.507.047zm4.2 7.33c-1.572.226-3.215.427-4.925.606a42.853 42.853 0 0 1-1.587 6.285 36.924 36.924 0 0 0 3.977-1.678 24.118 24.118 0 0 0 2.535-5.213zm-7.052-24.158c1.128.419 2.21.876 3.238 1.375a24.785 24.785 0 0 0-4.634-4.563c.506 1.014.97 2.08 1.396 3.188zm.599 24.918c-2.485.232-5.088.416-7.785.549-.132 2.659-.32 5.221-.56 7.668 2.376-.38 4.64-.91 6.75-1.57a46.964 46.964 0 0 0 1.595-6.647zM44.447 63.58c-.017 1.896-.031 3.707-.048 5.42a25.392 25.392 0 0 0 6.302-.92c.207-1.6.395-3.273.557-5.015a51.475 51.475 0 0 1-6.811.515zm15.96-2.802a36.206 36.206 0 0 1-1.395 3.188c1.741-1.311 3.3-2.85 4.635-4.56-1.03.493-2.113.953-3.24 1.372zm-33.048 0a36.893 36.893 0 0 1-3.238-1.372 24.768 24.768 0 0 0 4.634 4.56 36.56 36.56 0 0 1-1.396-3.188zm-.784-23.67a53.384 53.384 0 0 0-.5 6.83c2.619-.016 5.38-.032 8.25-.04.008-2.483.064-4.914.165-7.28-2.748.118-5.396.28-7.914.49zm9.798-9.65c-.21 2.48-.375 5.086-.493 7.795 2.399-.102 4.867-.154 7.388-.162.011-2.828.022-5.547.042-8.129a56.455 56.455 0 0 0-6.937.496zM20.31 36.619a129.6 129.6 0 0 1 4.922-.607 43.21 43.21 0 0 1 1.587-6.285 36.924 36.924 0 0 0-3.977 1.678 24.238 24.238 0 0 0-2.532 5.214zm4.2 8.434a1438.1 1438.1 0 0 1-5.51-.047c.045 2.15.37 4.227.94 6.206 1.623.204 3.325.388 5.094.548a49.104 49.104 0 0 1-.524-6.707zM35.108 61.36a162.7 162.7 0 0 1-.56-7.668c-2.697-.132-5.3-.317-7.782-.549.383 2.34.92 4.564 1.592 6.647 2.11.658 4.372 1.19 6.75 1.57z" fill="#FFF" fill-rule="nonzero"/></g></svg>