<svg width="88" height="88" viewBox="0 0 88 88" xmlns="http://www.w3.org/2000/svg"><title>Group 62</title><g fill="none" fill-rule="evenodd"><circle fill="#0D897F" cx="44" cy="44" r="44"/><g fill="#FFF" fill-rule="nonzero"><path d="M34.94 33L22 51.545l9.56 20.5L54.06 74 67 55.455l-1.906-4.085-13.607 18.132-5.315-.461-.016.174-2.03 1.021-1.823-1.356.015-.171-1.385-.121.173-2.005 1.388.122.019-.206 2.03-1.022 1.824 1.357-.019.202 4.206.364 13.58-18.094-6.692-14.352L34.942 33h-.003zm6.437 13.807l7.347.637 3.123 6.695-4.224 6.055-7.347-.637-3.123-6.695 4.224-6.055z"/><path d="M43.063 55.762L42 53.262 43.439 51l2.498.238 1.063 2.5L45.561 56zM59.264 13l-6.248 4.479.565 7.127-1.028-.513L51 25.2l.147 1.953 1.7.848 1.554-1.106c-.218-2.927-.473-6.034-.716-9.085l5.028-3.607.48 6.427-1.04-.52-1.554 1.105.148 1.953 1.7.848L60 22.91c-.243-3.446-.514-6.956-.734-9.91h-.002zM49.997 20.53L42.333 20l-3.864 6.114-.505-1.094-1.9-.138L35 26.552l.837 1.808 1.9.138c1.597-2.5 3.275-5.17 4.928-7.79l6.17.428-3.506 5.493-.513-1.108-1.9-.137-1.064 1.67.836 1.808c.633.047 1.268.094 1.9.138 1.89-2.936 3.802-5.94 5.412-8.468l-.003-.003z"/><path d="M49.997 20.53L42.333 20l-3.864 6.114-.505-1.094-1.9-.138L35 26.552l.837 1.808 1.9.138c1.597-2.5 3.275-5.17 4.928-7.79l6.17.428-3.506 5.493-.513-1.108-1.9-.137-1.064 1.67.836 1.808c.633.047 1.268.094 1.9.138 1.89-2.936 3.802-5.94 5.412-8.468l-.003-.003z"/></g></g></svg>