<svg width="88" height="88" viewBox="0 0 88 88" xmlns="http://www.w3.org/2000/svg"><title>Group 63</title><g fill="none" fill-rule="evenodd"><circle fill="#0D897F" cx="44" cy="44" r="44"/><g fill="#FFF" fill-rule="nonzero"><path d="M65.288 30.296H51.415v-5.293L36.59 25v5.293l-13.876.003c-.947 0-1.715.749-1.715 1.673V42h46V31.966c0-.924-.765-1.67-1.712-1.67zm-26.124-2.787h9.678v2.787h-9.678v-2.787zM64.297 43h-17.37v4.897h-5.854V43H23.704c-.94 0-1.704.731-1.704 1.633v16.734c0 .899.763 1.633 1.704 1.633h40.592c.94 0 1.704-.731 1.704-1.633V44.633c-.003-.901-.763-1.633-1.704-1.633z"/></g></g></svg>