<svg width="88" height="88" viewBox="0 0 88 88" xmlns="http://www.w3.org/2000/svg"><title>Group 64</title><g fill="none" fill-rule="evenodd"><circle fill="#0D897F" cx="44" cy="44" r="44"/><path d="M64.222 38.24c-1.64-2.563-9.305-3.771-15.106-3.923 1.105-.49 1.938-.876 1.938-.876l-2.062-2.963 4.448 1.844s.496-1.442 7.259-1.688c2.635-.098-3.684-7.468-9.05-5.916-1.032.299-5.568 3.386-8.491 6.183-.464-4.241-2.818-9.403-5.416-8.862-3.382.705-7.609 1.91-6.34 3.382.68.789 3.24 4.496 5.822 7.21-4.17-1.506-9.274-2.683-11.056-1.537-2.706 1.738-3.342 7.011-3.13 8.83.21 1.823 3.971-4.432 3.971-4.432l.558 4.853s6.352-.311 8.06-.697c.538-.122 1.257-.227 2.01-.314-3.51 3.634-7.683 10.21-7.986 11.607-.423 1.95 1.268 5.602 3.097 8.283 1.832 2.681 4.65-4.925 5.213-6.477.564-1.55-1.349-5.354-1.349-5.354l3.744 2.395s2.628-6.292 3.148-8.503a.173.173 0 0 1 .008-.03c.68 1.101 1.125 2.517 1.388 4.13.211 1.3.305 2.723.313 4.205a47.521 47.521 0 0 1-.135 3.694 72.654 72.654 0 0 1-.669 5.762A101.433 101.433 0 0 1 42.845 67h4.007a49.436 49.436 0 0 0 1.958-13.418 48.084 48.084 0 0 0-.143-4.113 43.353 43.353 0 0 0-.562-4.37c-.286-1.566-.632-2.883-.978-3.92 1.038.336 2.025.738 2.663 1.227 1.767 1.353 8.34 6.394 8.34 6.394l2.993-5.633s1.268 9.579 2.396 7.465c1.127-2.11 2.958-8.87.704-12.392z" fill="#FFF" fill-rule="nonzero"/></g></svg>