<svg width="402" height="65" viewBox="0 0 402 65" xmlns="http://www.w3.org/2000/svg"><title>Group 40</title><g fill="none" fill-rule="evenodd"><path d="M60 61.676V3.067h4.269l24.724 41.355 6.581 11.65h.356l-.356-8.537a205.061 205.061 0 0 1-.178-8.538V3.067h3.913v58.609H95.04L70.316 20.32l-6.58-11.65h-.356c.118 2.845.237 5.617.355 8.315.119 2.697.178 5.47.178 8.315v36.375H60zm76.929 1.067c-3.498 0-6.73-.727-9.694-2.18-2.964-1.452-5.514-3.512-7.648-6.18-2.135-2.668-3.795-5.885-4.98-9.65-1.187-3.765-1.78-7.96-1.78-12.584 0-4.625.593-8.79 1.78-12.495 1.185-3.706 2.845-6.878 4.98-9.516 2.134-2.639 4.684-4.655 7.648-6.048C130.2 2.697 133.431 2 136.929 2c3.557 0 6.818.697 9.783 2.09 2.964 1.393 5.514 3.41 7.648 6.048 2.135 2.638 3.795 5.81 4.98 9.516 1.186 3.705 1.78 7.87 1.78 12.495 0 4.625-.594 8.82-1.78 12.584-1.185 3.765-2.845 6.982-4.98 9.65-2.134 2.668-4.684 4.728-7.648 6.18-2.965 1.453-6.226 2.18-9.783 2.18zm0-3.736c2.965 0 5.662-.637 8.093-1.912 2.431-1.274 4.521-3.083 6.27-5.425 1.75-2.342 3.098-5.158 4.047-8.449.948-3.29 1.423-6.98 1.423-11.072 0-4.032-.475-7.678-1.423-10.939-.95-3.261-2.298-6.033-4.047-8.315-1.749-2.283-3.839-4.047-6.27-5.292-2.43-1.245-5.128-1.868-8.093-1.868s-5.677.623-8.138 1.868c-2.46 1.245-4.55 3.009-6.27 5.292-1.719 2.282-3.053 5.054-4.002 8.315-.948 3.261-1.423 6.907-1.423 10.939 0 4.091.475 7.782 1.423 11.072.949 3.291 2.283 6.107 4.002 8.45 1.72 2.341 3.81 4.15 6.27 5.424 2.461 1.275 5.173 1.912 8.138 1.912zm50.248 2.669V6.625h-18.676V3.067h41.444v3.558h-18.677v55.05h-4.09zm52.917 0V44.689h-26.147v-2.312L240.36 4.846h3.557v36.463h8.449v3.38h-8.449v16.987h-3.824zm-21.345-20.367h21.345V20.5c0-1.305.03-2.935.089-4.892.06-1.956.148-3.587.267-4.891h-.356a69.088 69.088 0 0 1-2.224 3.468 131.405 131.405 0 0 0-2.4 3.646l-16.72 23.48zm64.478 21.434c-2.49 0-4.92-.37-7.292-1.112-2.372-.741-4.477-2.016-6.315-3.824-1.838-1.808-3.305-4.225-4.402-7.248-1.097-3.024-1.645-6.819-1.645-11.384V3.067h4.09V38.73c0 3.913.43 7.16 1.29 9.739.86 2.579 2.001 4.654 3.424 6.225 1.423 1.571 3.069 2.683 4.936 3.335 1.868.652 3.84.978 5.914.978 2.135 0 4.166-.326 6.093-.978 1.926-.652 3.616-1.764 5.069-3.335 1.452-1.571 2.623-3.646 3.513-6.225.89-2.58 1.334-5.826 1.334-9.739V3.067h3.824v36.108c0 4.565-.563 8.36-1.69 11.384-1.126 3.023-2.609 5.44-4.447 7.248-1.838 1.808-3.942 3.083-6.314 3.824a24.603 24.603 0 0 1-7.382 1.112zM5.7 65l2.6-21.4H0V40h8.7l2.1-17H2v-3.6h9.2L13.7 0h3.5l-2.5 19.4h14.9L32.2 0h3.4l-2.5 19.4h8.2V23h-8.5l-2.1 17h8.6v3.6h-9.1L27.7 65h-3.5l2.5-21.4H11.8L9.2 65H5.7zm6.5-25h15l2.1-17h-15l-2.1 17z" fill="#000"/><g fill="#FF203B" fill-rule="nonzero"><path d="M369.282 42c0-5.455-4.318-10-9.773-10-3.637 0-6.592 1.818-8.408 4.773-2.045-3.408-6.364-5.455-10.909-4.318-3.41.908-6.136 3.635-6.818 7.045-1.137 3.864.453 7.5 2.953 9.772l13.637 13.636c.226.455.681.909 1.136.909.682 0 .909-.455 1.364-.909l13.408-13.636c2.047-1.819 3.41-4.545 3.41-7.272zM369 5.961C369 3.255 366.858 1 364.151 1c-1.804 0-3.27.902-4.171 2.368-1.015-1.69-3.157-2.706-5.412-2.142-1.692.45-3.044 1.803-3.383 3.495-.563 1.917.225 3.72 1.466 4.848l6.765 6.765c.112.226.338.45.564.45.338 0 .45-.225.676-.45l6.652-6.765C368.324 8.667 369 7.314 369 5.96zM402 28.961c0-2.706-2.142-4.961-4.849-4.961-1.804 0-3.27.902-4.171 2.368-1.015-1.69-3.157-2.706-5.412-2.142-1.692.45-3.044 1.803-3.383 3.495-.563 1.917.225 3.72 1.466 4.848l6.765 6.765c.112.226.338.45.564.45.338 0 .45-.225.676-.45l6.652-6.765c1.016-.902 1.692-2.255 1.692-3.608z"/></g></g></svg>