<?xml version="1.0" encoding="UTF-8"?>
<svg width="20px" height="40px" viewBox="0 0 20 40" version="1.1" xmlns="http://www.w3.org/2000/svg" xmlns:xlink="http://www.w3.org/1999/xlink">
    <!-- Generator: Sketch 49 (51002) - http://www.bohemiancoding.com/sketch -->
    <title>Shape</title>
    <desc>Created with Sketch.</desc>
    <defs></defs>
    <g id="Page-1" stroke="none" stroke-width="1" fill="none" fill-rule="evenodd">
        <g id="NOT4U_design" transform="translate(-1191.000000, -7525.000000)" fill="#0D897F" fill-rule="nonzero">
            <g id="Group-47" transform="translate(230.000000, 7210.000000)">
                <g id="Group-46" transform="translate(0.000000, 136.000000)">
                    <g id="np_arrow_1807371_000000" transform="translate(490.500000, 199.000000) rotate(-180.000000) translate(-490.500000, -199.000000) translate(0.000000, 179.000000)">
                        <path d="M19.5595951,19.4418762 C19.5335533,19.0460451 19.3773018,18.6692984 19.1151507,18.3724539 L3.11515065,0.594676171 C2.79744399,0.240507282 2.35475065,0.0269872823 1.8807951,0.00267617124 C1.40683954,-0.0233656065 0.943283986,0.14156506 0.589150653,0.457520616 C0.236719541,0.775227282 0.0266617636,1.21965395 0.00235065251,1.6936095 C-0.0219551253,2.16756506 0.142977319,2.63112062 0.462439541,2.98352062 L15.3931062,19.5666317 L0.462439541,36.1497428 C0.142995097,36.5004362 -0.0219160142,36.9639651 0.00235065251,37.4379206 C0.0266559858,37.9118762 0.236723986,38.3563206 0.589150653,38.6740095 C0.943319541,38.9917162 1.40683954,39.1548984 1.8807951,39.1305873 C2.35475065,39.1045459 2.79746176,38.8910051 3.11515065,38.5385873 L19.1151507,20.7608095 C19.4363329,20.3996984 19.5960395,19.9222762 19.5595951,19.4413428 L19.5595951,19.4418762 Z" id="Shape" transform="translate(9.782351, 19.566480) rotate(-180.000000) translate(-9.782351, -19.566480) "></path>
                    </g>
                </g>
            </g>
        </g>
    </g>
</svg>