<?xml version="1.0" encoding="UTF-8"?>
<svg width="20px" height="40px" viewBox="0 0 20 40" version="1.1" xmlns="http://www.w3.org/2000/svg" xmlns:xlink="http://www.w3.org/1999/xlink">
    <!-- Generator: Sketch 49 (51002) - http://www.bohemiancoding.com/sketch -->
    <title>Shape</title>
    <desc>Created with Sketch.</desc>
    <defs></defs>
    <g id="Page-1" stroke="none" stroke-width="1" fill="none" fill-rule="evenodd">
        <g id="NOT4U_design" transform="translate(-230.000000, -7525.000000)" fill="#0D897F" fill-rule="nonzero">
            <g id="Group-47" transform="translate(230.000000, 7210.000000)">
                <g id="Group-46" transform="translate(0.000000, 136.000000)">
                    <g id="np_arrow_1807371_000000" transform="translate(490.500000, 199.000000) rotate(-180.000000) translate(-490.500000, -199.000000) translate(0.000000, 179.000000)">
                        <path d="M980.559595,19.4418762 C980.533553,19.0460451 980.377302,18.6692984 980.115151,18.3724539 L964.115151,0.594676171 C963.797444,0.240507282 963.354751,0.0269872823 962.880795,0.00267617124 C962.40684,-0.0233656065 961.943284,0.14156506 961.589151,0.457520616 C961.23672,0.775227282 961.026662,1.21965395 961.002351,1.6936095 C960.978045,2.16756506 961.142977,2.63112062 961.46244,2.98352062 L976.393106,19.5666317 L961.46244,36.1497428 C961.142995,36.5004362 960.978084,36.9639651 961.002351,37.4379206 C961.026656,37.9118762 961.236724,38.3563206 961.589151,38.6740095 C961.94332,38.9917162 962.40684,39.1548984 962.880795,39.1305873 C963.354751,39.1045459 963.797462,38.8910051 964.115151,38.5385873 L980.115151,20.7608095 C980.436333,20.3996984 980.59604,19.9222762 980.559595,19.4413428 L980.559595,19.4418762 Z" id="Shape"></path>
                    </g>
                </g>
            </g>
        </g>
    </g>
</svg>